<svg width="272" height="200" viewBox="0 0 272 200" fill="none" xmlns="http://www.w3.org/2000/svg">
<rect width="200" height="200" fill="#00AAE7"/>
<path d="M71.088 189H89.008V162.504H123.696V146.504H89.008V117.704H127.152V101.96H71.088V189ZM160.901 190.152C177.925 190.152 190.597 181.32 190.597 165.192C190.597 150.216 182.021 143.56 166.789 137.032L162.309 135.112C154.629 131.784 151.301 129.608 151.301 124.232C151.301 119.88 154.629 116.552 159.877 116.552C164.997 116.552 168.325 118.728 171.397 124.232L185.349 115.272C179.461 104.904 171.269 100.936 159.877 100.936C143.877 100.936 133.637 111.176 133.637 124.616C133.637 139.208 142.213 146.12 155.141 151.624L159.621 153.544C167.813 157.128 172.677 159.304 172.677 165.448C172.677 170.568 167.941 174.28 160.517 174.28C151.685 174.28 146.693 169.672 142.853 163.4L128.261 171.848C133.509 182.216 144.261 190.152 160.901 190.152ZM190.031 189H208.847L222.287 165.832C224.975 161.224 227.663 153.544 227.663 153.544C227.663 153.544 230.991 161.352 233.679 165.832L247.375 189H267.855L238.927 141.256L262.223 101.96H243.151L234.703 116.936C232.143 121.416 229.711 128.84 229.711 128.84C229.711 128.84 226.511 121.288 223.951 116.936L215.119 101.96H194.767L218.447 141.128L190.031 189Z" fill="#323330"/>
</svg>
